<mxfile host="app.diagrams.net" agent="Mozilla/5.0 (Windows NT 10.0; Win64; x64) AppleWebKit/537.36 (KHTML, like Gecko) Chrome/137.0.0.0 Safari/537.36" version="27.1.4">
  <diagram name="Page-1" id="_FvWvt4cjJNgiLIyqjLY">
    <mxGraphModel dx="992" dy="568" grid="1" gridSize="10" guides="1" tooltips="1" connect="1" arrows="1" fold="1" page="1" pageScale="1" pageWidth="850" pageHeight="1100" math="0" shadow="0">
      <root>
        <mxCell id="0" />
        <mxCell id="1" parent="0" />
        <mxCell id="Mgy-9qOJch3EJGo6zbQB-1" value="" style="rounded=0;whiteSpace=wrap;html=1;" parent="1" vertex="1">
          <mxGeometry x="280" width="320" height="60" as="geometry" />
        </mxCell>
        <mxCell id="Mgy-9qOJch3EJGo6zbQB-9" value="" style="rounded=0;whiteSpace=wrap;html=1;" parent="1" vertex="1">
          <mxGeometry x="280" y="1040" width="320" height="60" as="geometry" />
        </mxCell>
        <mxCell id="Mgy-9qOJch3EJGo6zbQB-10" value="Logo" style="text;html=1;align=center;verticalAlign=middle;whiteSpace=wrap;rounded=0;" parent="1" vertex="1">
          <mxGeometry x="317.5" y="15" width="60" height="30" as="geometry" />
        </mxCell>
        <mxCell id="Mgy-9qOJch3EJGo6zbQB-14" value="Start Your Journey to Cybersecurity Confidence" style="text;html=1;align=center;verticalAlign=middle;whiteSpace=wrap;rounded=0;fontSize=13;fontStyle=1" parent="1" vertex="1">
          <mxGeometry x="272.5" y="90" width="330" height="50" as="geometry" />
        </mxCell>
        <mxCell id="Mgy-9qOJch3EJGo6zbQB-15" value="Lorem ipsum dolor sit amet consectetur adipisicing elit. Quam reiciendis pariatur nostrum amet natus asperiores minima voluptates corporis veritatis expedita delectus, perspiciatis dicta dolor neque laudantium autem. Ut, neque quo." style="text;html=1;align=center;verticalAlign=middle;whiteSpace=wrap;rounded=0;fontSize=11;" parent="1" vertex="1">
          <mxGeometry x="297.51" y="140" width="280" height="80" as="geometry" />
        </mxCell>
        <mxCell id="Mgy-9qOJch3EJGo6zbQB-16" value="Protect Yourself" style="rounded=0;whiteSpace=wrap;html=1;" parent="1" vertex="1">
          <mxGeometry x="382.5" y="250" width="120" height="30" as="geometry" />
        </mxCell>
        <mxCell id="Mgy-9qOJch3EJGo6zbQB-17" value="Did You Know" style="text;html=1;align=center;verticalAlign=middle;whiteSpace=wrap;rounded=0;fontSize=14;fontStyle=1" parent="1" vertex="1">
          <mxGeometry x="365" y="320" width="145" height="30" as="geometry" />
        </mxCell>
        <mxCell id="Mgy-9qOJch3EJGo6zbQB-18" value="Lorem, ipsum dolor sit amet consectetur adipisicing elit. Quis eos, quaerat rem maxime quidem voluptates necessitatibus expedita unde blanditiis facere dolor architecto cum, quae eveniet sint eum atque maiores eligendi!" style="text;html=1;align=center;verticalAlign=middle;whiteSpace=wrap;rounded=0;fontSize=11;" parent="1" vertex="1">
          <mxGeometry x="297.5" y="340" width="280" height="110" as="geometry" />
        </mxCell>
        <mxCell id="Mgy-9qOJch3EJGo6zbQB-19" value="What You will learn" style="text;html=1;align=center;verticalAlign=middle;whiteSpace=wrap;rounded=0;fontSize=16;fontStyle=1" parent="1" vertex="1">
          <mxGeometry x="350" y="460" width="180" height="30" as="geometry" />
        </mxCell>
        <mxCell id="Mgy-9qOJch3EJGo6zbQB-20" value="Why It Matters" style="text;html=1;align=center;verticalAlign=middle;whiteSpace=wrap;rounded=0;fontSize=15;fontStyle=1" parent="1" vertex="1">
          <mxGeometry x="379.38" y="870" width="142.5" height="30" as="geometry" />
        </mxCell>
        <mxCell id="Mgy-9qOJch3EJGo6zbQB-21" value="Lorem ipsum dolor sit amet consectetur adipisicing elit. Ipsum harum dolore velit iusto adipisci magnam nobis quibusdam cumque non recusandae architecto explicabo quisquam cupiditate necessitatibus, vero libero cum quis ipsam." style="text;html=1;align=center;verticalAlign=middle;whiteSpace=wrap;rounded=0;fontSize=11;" parent="1" vertex="1">
          <mxGeometry x="320" y="890" width="261.25" height="140" as="geometry" />
        </mxCell>
        <mxCell id="Mgy-9qOJch3EJGo6zbQB-22" value="FOOTER" style="text;html=1;align=center;verticalAlign=middle;whiteSpace=wrap;rounded=0;" parent="1" vertex="1">
          <mxGeometry x="407.5" y="1055" width="60" height="30" as="geometry" />
        </mxCell>
        <mxCell id="Mgy-9qOJch3EJGo6zbQB-23" value="Password Security" style="text;html=1;align=center;verticalAlign=middle;whiteSpace=wrap;rounded=0;fontSize=11;" parent="1" vertex="1">
          <mxGeometry x="388.75" y="680" width="105" height="30" as="geometry" />
        </mxCell>
        <mxCell id="Mgy-9qOJch3EJGo6zbQB-24" value="Phishing Scams" style="text;html=1;align=center;verticalAlign=middle;whiteSpace=wrap;rounded=0;fontSize=11;" parent="1" vertex="1">
          <mxGeometry x="388.75" y="580" width="105" height="30" as="geometry" />
        </mxCell>
        <mxCell id="Mgy-9qOJch3EJGo6zbQB-25" value="Safe browsing" style="text;html=1;align=center;verticalAlign=middle;whiteSpace=wrap;rounded=0;fontSize=11;" parent="1" vertex="1">
          <mxGeometry x="398.75" y="800" width="105" height="30" as="geometry" />
        </mxCell>
        <mxCell id="V4AhgPOZD35sJVi4ZSQR-1" value="" style="endArrow=none;html=1;rounded=0;" edge="1" parent="1">
          <mxGeometry width="50" height="50" relative="1" as="geometry">
            <mxPoint x="550.63" y="26.31" as="sourcePoint" />
            <mxPoint x="568.13" y="26.31" as="targetPoint" />
          </mxGeometry>
        </mxCell>
        <mxCell id="V4AhgPOZD35sJVi4ZSQR-4" value="" style="endArrow=none;html=1;rounded=0;" edge="1" parent="1">
          <mxGeometry width="50" height="50" relative="1" as="geometry">
            <mxPoint x="550.63" y="29.11" as="sourcePoint" />
            <mxPoint x="568.13" y="29.11" as="targetPoint" />
          </mxGeometry>
        </mxCell>
        <mxCell id="V4AhgPOZD35sJVi4ZSQR-5" value="" style="endArrow=none;html=1;rounded=0;" edge="1" parent="1">
          <mxGeometry width="50" height="50" relative="1" as="geometry">
            <mxPoint x="550.63" y="33.31" as="sourcePoint" />
            <mxPoint x="568.13" y="33.31" as="targetPoint" />
          </mxGeometry>
        </mxCell>
        <mxCell id="V4AhgPOZD35sJVi4ZSQR-7" value="" style="rounded=0;whiteSpace=wrap;html=1;" vertex="1" parent="1">
          <mxGeometry x="320" y="510" width="240" height="70" as="geometry" />
        </mxCell>
        <mxCell id="V4AhgPOZD35sJVi4ZSQR-8" value="" style="rounded=0;whiteSpace=wrap;html=1;" vertex="1" parent="1">
          <mxGeometry x="320" y="610" width="240" height="70" as="geometry" />
        </mxCell>
        <mxCell id="V4AhgPOZD35sJVi4ZSQR-12" value="" style="rounded=0;whiteSpace=wrap;html=1;" vertex="1" parent="1">
          <mxGeometry x="320" y="730" width="240" height="70" as="geometry" />
        </mxCell>
      </root>
    </mxGraphModel>
  </diagram>
</mxfile>
